<?xml version="1.0" standalone="no"?>
<!DOCTYPE svg PUBLIC "-//W3C//DTD SVG 20010904//EN"
 "http://www.w3.org/TR/2001/REC-SVG-20010904/DTD/svg10.dtd">
<svg version="1.0" xmlns="http://www.w3.org/2000/svg"
 width="500.000000pt" height="500.000000pt" viewBox="0 0 500.000000 500.000000"
 preserveAspectRatio="xMidYMid meet">
<metadata>
Created by potrace 1.14, written by Peter Selinger 2001-2017
</metadata>
<g transform="translate(0.000000,500.000000) scale(0.100000,-0.100000)"
fill="#000000" stroke="none">
<path d="M2428 4175 c-2 -2 -39 -5 -84 -9 -44 -3 -114 -12 -155 -21 -78 -16
-247 -63 -264 -74 -5 -3 -12 -6 -15 -7 -73 -17 -361 -176 -413 -229 -9 -8 -18
-15 -20 -15 -13 0 -180 -159 -242 -231 -90 -104 -166 -219 -234 -357 -27 -57
-51 -106 -52 -110 -1 -4 -6 -18 -11 -32 -14 -35 -58 -180 -63 -208 -2 -12 -6
-30 -9 -40 -3 -9 -8 -33 -10 -52 -3 -19 -8 -57 -12 -85 -10 -61 -10 -344 -1
-400 4 -22 9 -57 12 -79 2 -21 7 -47 11 -58 3 -11 7 -30 9 -41 11 -71 63 -223
112 -327 94 -200 196 -343 355 -499 73 -71 72 -70 138 -121 25 -19 47 -37 50
-40 3 -3 17 -11 33 -19 15 -8 27 -18 27 -23 0 -4 5 -8 11 -8 6 0 23 -9 39 -20
39 -28 217 -115 265 -130 22 -7 45 -15 50 -19 6 -3 13 -6 18 -7 4 -1 8 -2 10
-4 1 -1 9 -3 17 -5 8 -2 51 -14 95 -26 44 -11 89 -22 100 -24 11 -2 45 -7 75
-11 30 -5 141 -9 245 -9 173 1 232 5 305 20 14 2 39 7 55 11 17 3 62 15 100
27 39 11 72 21 75 22 40 8 228 92 265 118 16 12 32 21 35 20 5 -2 167 104 186
122 7 5 30 25 53 44 115 93 237 230 321 361 74 114 76 118 104 175 56 117 75
164 76 187 0 4 9 27 19 51 17 39 41 130 58 224 9 47 9 515 0 563 -6 36 -8 41
-27 124 -10 45 -43 151 -57 186 -3 8 -7 17 -8 20 -29 86 -159 325 -195 360 -3
3 -25 31 -49 63 -49 66 -197 218 -253 260 -20 14 -42 32 -50 39 -88 85 -421
251 -570 284 -10 2 -28 7 -40 10 -46 12 -175 35 -223 40 -53 6 -263 12 -267 9z
m-684 -672 c4 -5 26 -15 49 -25 l42 -16 -30 -13 c-64 -26 -102 -30 -96 -9 2 8
3 27 2 43 -1 26 16 37 33 20z m62 -130 c-1 -21 1 -47 5 -59 7 -21 -5 -53 -16
-42 -7 6 -8 22 -5 91 2 26 6 47 10 47 4 0 7 -17 6 -37z m-51 -12 c2 -24 -18
-51 -39 -51 -7 0 -18 11 -24 25 -10 22 -8 26 16 39 35 18 45 15 47 -13z m-317
-128 c10 -21 7 -73 -5 -82 -4 -3 -9 -21 -11 -40 -3 -24 0 -31 9 -26 8 5 10 4
5 -3 -4 -7 -15 -12 -24 -12 -15 0 -17 12 -17 83 0 74 6 96 27 97 4 0 11 -8 16
-17z m403 -12 c-9 -6 -10 -11 -2 -15 6 -4 8 -13 4 -19 -4 -6 -6 -24 -5 -39 2
-18 -4 -31 -17 -38 -11 -5 -22 -7 -25 -2 -4 6 -9 94 -7 115 1 4 16 7 34 7 22
0 28 -3 18 -9z m1077 -64 c6 -5 12 -19 12 -33 0 -27 -6 -30 -63 -39 -95 -13
-100 -26 -102 -267 -2 -230 -4 -226 93 -153 71 53 236 221 279 283 18 26 33
29 33 7 0 -9 6 -26 14 -38 14 -21 10 -27 -100 -142 -62 -66 -114 -122 -114
-125 1 -19 397 -434 500 -524 36 -31 90 -55 127 -56 26 0 39 -31 24 -58 -9
-17 -22 -18 -156 -16 -136 2 -148 4 -165 24 -19 22 -123 139 -191 215 -20 22
-89 99 -152 171 -107 121 -166 169 -185 150 -4 -4 -8 -53 -8 -109 -3 -156 0
-144 -34 -139 -16 2 -30 8 -30 12 0 5 -9 12 -20 15 -22 7 -67 45 -69 58 0 4
-1 12 -1 18 0 8 -4 8 -13 1 -16 -13 -14 -42 -16 308 -2 235 -5 291 -18 317
-18 38 -41 49 -109 52 -34 1 -47 22 -34 57 7 19 17 19 246 19 132 0 245 -4
252 -8z m289 -35 c3 -37 1 -40 -20 -38 -34 3 -47 15 -47 40 0 28 18 46 43 42
16 -2 21 -12 24 -44z m-1367 -387 c-11 -13 11 -40 23 -28 4 3 7 -4 7 -16 0
-15 4 -20 13 -15 9 5 9 4 0 -6 -6 -7 -9 -19 -6 -26 5 -14 -7 -16 -72 -16 -14
0 -29 0 -34 1 -12 1 -10 41 1 41 4 0 7 3 7 8 -1 4 -1 21 0 39 1 30 3 32 36 31
26 -1 32 -4 25 -13z m210 -20 c-7 -9 -15 -13 -19 -10 -3 3 1 10 9 15 21 14 24
12 10 -5z m1564 -113 c3 -5 -1 -9 -9 -9 -8 0 -12 4 -9 9 3 4 7 8 9 8 2 0 6 -4
9 -8z m-1908 -59 c-2 -32 -5 -89 -5 -127 -1 -66 -7 -83 -14 -40 -1 10 -7 25
-11 33 -7 11 -6 12 5 6 11 -7 12 -6 2 6 -11 13 -12 111 -2 149 3 13 18 29 27
30 1 0 0 -26 -2 -57z m839 -475 c-3 -12 2 -32 10 -45 9 -13 12 -23 8 -24 -44
-5 -124 -5 -131 0 -6 3 -11 13 -12 21 -6 41 0 46 63 57 34 5 63 11 64 11 1 1
0 -8 -2 -20z m383 -30 c2 -19 -3 -30 -17 -38 -24 -12 -23 -13 -25 23 -1 15 2
27 7 27 4 0 5 5 1 11 -4 7 1 10 12 7 12 -2 20 -13 22 -30z"/>
</g>
</svg>
